<svg width="30" height="30" viewBox="0 0 30 30" fill="none" xmlns="http://www.w3.org/2000/svg">
<rect width="30" height="30" rx="15" fill="#9747FF"/>
<path d="M3.89996 1.79999C7.37818 1.79999 10.1978 4.61964 10.1978 8.09786V22.3848C6.71962 22.3848 3.89996 19.5651 3.89996 16.0869V1.79999Z" fill="white"/>
<path d="M11.7723 7.61523C15.2506 7.61523 18.0702 10.4349 18.0702 13.9131V28.2C14.592 28.2 11.7723 25.3804 11.7723 21.9022V7.61523Z" fill="white"/>
<path d="M19.8021 28.2C21.4724 28.2 23.0743 27.6578 24.2554 26.6927C25.4365 25.7276 26.1 24.4186 26.1 23.0538C26.1 21.6889 25.4365 20.3799 24.2554 19.4148C23.0743 18.4497 21.4724 17.9076 19.8021 17.9076L19.8021 23.0538V28.2Z" fill="white"/>
</svg>
