<svg width="110" height="30" viewBox="0 0 110 30" fill="none" xmlns="http://www.w3.org/2000/svg">
<path d="M39.1211 24H31.6328V7.08984H38.9922C42.168 7.08984 44.1602 8.71875 44.1602 11.3086C44.1602 13.1602 42.7773 14.707 40.9844 14.9766V15.0703C43.2812 15.2461 44.9688 16.9219 44.9688 19.1602C44.9688 22.1367 42.7305 24 39.1211 24ZM35.1719 9.72656V14.1211H37.7148C39.6016 14.1211 40.6797 13.2891 40.6797 11.8594C40.6797 10.5 39.7305 9.72656 38.0781 9.72656H35.1719ZM35.1719 21.3633H38.2188C40.2578 21.3633 41.3594 20.4961 41.3594 18.8789C41.3594 17.2969 40.2227 16.4531 38.1367 16.4531H35.1719V21.3633ZM47.6055 24V14.0156H45.8945V11.4961H47.6055V10.5469C47.6055 8.08594 48.7656 6.9375 51.7422 6.9375C52.375 6.9375 53.0898 7.00781 53.4883 7.08984V9.35156C53.2422 9.30469 52.9023 9.28125 52.5625 9.28125C51.4375 9.28125 50.9453 9.77344 50.9453 10.6641V11.4961H53.4414V14.0156H51.0273V24H47.6055ZM55.2461 24V11.4375H58.5508V13.6992H58.6211C59.0664 12.1055 60.1328 11.2383 61.6094 11.2383C62.0078 11.2383 62.3477 11.2969 62.582 11.3672V14.3789C62.3008 14.2617 61.832 14.1797 61.3398 14.1797C59.6523 14.1797 58.668 15.2109 58.668 16.9805V24H55.2461ZM68.5352 21.7266C70.0234 21.7266 71.2539 20.7539 71.2539 19.3945V18.4805L68.6055 18.6445C67.3281 18.7383 66.6016 19.3125 66.6016 20.2031C66.6016 21.1406 67.375 21.7266 68.5352 21.7266ZM67.4102 24.1992C65.0195 24.1992 63.2031 22.6523 63.2031 20.3906C63.2031 18.1055 64.9609 16.7812 68.0898 16.5938L71.2539 16.4062V15.5742C71.2539 14.4023 70.4336 13.7227 69.1445 13.7227C67.8672 13.7227 67.0586 14.3555 66.8945 15.2812H63.7656C63.8945 12.8438 65.9688 11.168 69.2969 11.168C72.5195 11.168 74.6172 12.832 74.6172 15.3633V24H71.3125V22.0781H71.2422C70.5391 23.4141 68.9805 24.1992 67.4102 24.1992ZM76.832 24V11.4375H80.1367V13.7109H80.207C80.7344 12.1992 82.082 11.2031 83.793 11.2031C85.6094 11.2031 86.875 12.1406 87.2969 13.7812H87.3672C87.9297 12.1992 89.4297 11.2031 91.2695 11.2031C93.7305 11.2031 95.3828 12.8906 95.3828 15.4219V24H91.9609V16.2773C91.9609 14.8242 91.2344 14.0273 89.9102 14.0273C88.6094 14.0273 87.7539 14.9766 87.7539 16.3711V24H84.4609V16.1719C84.4609 14.8242 83.6992 14.0273 82.4336 14.0273C81.1328 14.0273 80.2539 15.0117 80.2539 16.418V24H76.832ZM103.188 13.6992C101.688 13.6992 100.609 14.8359 100.492 16.4062H105.824C105.754 14.8008 104.711 13.6992 103.188 13.6992ZM105.871 20.1562H109.012C108.637 22.6172 106.387 24.2695 103.281 24.2695C99.4141 24.2695 97.0938 21.7969 97.0938 17.7773C97.0938 13.7695 99.4375 11.168 103.152 11.168C106.809 11.168 109.117 13.6406 109.117 17.4609V18.5039H100.457V18.7148C100.457 20.5078 101.594 21.7383 103.34 21.7383C104.594 21.7383 105.555 21.1172 105.871 20.1562Z" fill="white"/>
<path d="M3.89999 1.8C7.37821 1.8 10.1979 4.61965 10.1979 8.09787V22.3848C6.71965 22.3848 3.89999 19.5651 3.89999 16.0869V1.8Z" fill="white"/>
<path d="M11.7723 7.61523C15.2506 7.61523 18.0702 10.4349 18.0702 13.9131V28.2C14.592 28.2 11.7723 25.3804 11.7723 21.9021V7.61523Z" fill="white"/>
<path d="M19.8021 28.1999C21.4724 28.1999 23.0743 27.6578 24.2554 26.6927C25.4365 25.7276 26.1 24.4186 26.1 23.0537C26.1 21.6889 25.4365 20.3799 24.2554 19.4148C23.0743 18.4497 21.4724 17.9075 19.8021 17.9075L19.8021 23.0537V28.1999Z" fill="white"/>
</svg>
