<svg width="17" height="16" viewBox="0 0 17 16" fill="none" xmlns="http://www.w3.org/2000/svg">
<path d="M1.45309 4.73658H3.27546C4.19067 4.73658 4.72855 4.19067 4.72855 3.24335V1.49323C4.72855 0.553939 4.19067 0 3.27546 0H1.45309C0.545911 0 0 0.553939 0 1.49323V3.24335C0 4.19067 0.545911 4.73658 1.45309 4.73658ZM7.24937 4.73658H9.07175C9.98695 4.73658 10.5248 4.19067 10.5248 3.24335V1.49323C10.5248 0.553939 9.98695 0 9.07175 0H7.24937C6.33417 0 5.79629 0.553939 5.79629 1.49323V3.24335C5.79629 4.19067 6.33417 4.73658 7.24937 4.73658ZM13.0537 4.73658H14.8761C15.7832 4.73658 16.3292 4.19067 16.3292 3.24335V1.49323C16.3292 0.553939 15.7832 0 14.8761 0H13.0537C12.1385 0 11.5926 0.553939 11.5926 1.49323V3.24335C11.5926 4.19067 12.1385 4.73658 13.0537 4.73658ZM7.43402 3.50025C7.16909 3.50025 7.03261 3.35575 7.03261 3.06673V1.66182C7.03261 1.38886 7.16909 1.24436 7.43402 1.24436H8.87908C9.144 1.24436 9.28851 1.38886 9.28851 1.66182V3.06673C9.28851 3.35575 9.144 3.50025 8.87908 3.50025H7.43402ZM13.2383 3.50025C12.9734 3.50025 12.8289 3.35575 12.8289 3.06673V1.66182C12.8289 1.38886 12.9734 1.24436 13.2383 1.24436H14.6754C14.9483 1.24436 15.0848 1.38886 15.0848 1.66182V3.06673C15.0848 3.35575 14.9483 3.50025 14.6754 3.50025H13.2383ZM1.45309 10.3643H3.27546C4.19067 10.3643 4.72855 9.82639 4.72855 8.8871V7.12092C4.72855 6.18164 4.19067 5.64375 3.27546 5.64375H1.45309C0.545911 5.64375 0 6.18164 0 7.12092V8.8871C0 9.82639 0.545911 10.3643 1.45309 10.3643ZM7.24937 10.3643H9.07175C9.98695 10.3643 10.5248 9.82639 10.5248 8.8871V7.12092C10.5248 6.18164 9.98695 5.64375 9.07175 5.64375H7.24937C6.33417 5.64375 5.79629 6.18164 5.79629 7.12092V8.8871C5.79629 9.82639 6.33417 10.3643 7.24937 10.3643ZM13.0537 10.3643H14.8761C15.7832 10.3643 16.3292 9.82639 16.3292 8.8871V7.12092C16.3292 6.18164 15.7832 5.64375 14.8761 5.64375H13.0537C12.1385 5.64375 11.5926 6.18164 11.5926 7.12092V8.8871C11.5926 9.82639 12.1385 10.3643 13.0537 10.3643ZM1.64576 9.12795C1.3728 9.12795 1.24436 8.98344 1.24436 8.70246V7.29754C1.24436 7.01656 1.3728 6.87205 1.64576 6.87205H3.08279C3.34772 6.87205 3.50025 7.01656 3.50025 7.29754V8.70246C3.50025 8.98344 3.34772 9.12795 3.08279 9.12795H1.64576ZM7.43402 9.12795C7.16909 9.12795 7.03261 8.98344 7.03261 8.70246V7.29754C7.03261 7.01656 7.16909 6.87205 7.43402 6.87205H8.87908C9.144 6.87205 9.28851 7.01656 9.28851 7.29754V8.70246C9.28851 8.98344 9.144 9.12795 8.87908 9.12795H7.43402ZM13.2383 9.12795C12.9734 9.12795 12.8289 8.98344 12.8289 8.70246V7.29754C12.8289 7.01656 12.9734 6.87205 13.2383 6.87205H14.6754C14.9483 6.87205 15.0848 7.01656 15.0848 7.29754V8.70246C15.0848 8.98344 14.9483 9.12795 14.6754 9.12795H13.2383ZM1.45309 16H3.27546C4.19067 16 4.72855 15.4541 4.72855 14.5148V12.7566C4.72855 11.8174 4.19067 11.2715 3.27546 11.2715H1.45309C0.545911 11.2715 0 11.8174 0 12.7566V14.5148C0 15.4541 0.545911 16 1.45309 16ZM7.24937 16H9.07175C9.98695 16 10.5248 15.4541 10.5248 14.5148V12.7566C10.5248 11.8174 9.98695 11.2715 9.07175 11.2715H7.24937C6.33417 11.2715 5.79629 11.8174 5.79629 12.7566V14.5148C5.79629 15.4541 6.33417 16 7.24937 16ZM13.0537 16H14.8761C15.7832 16 16.3292 15.4541 16.3292 14.5148V12.7566C16.3292 11.8174 15.7832 11.2715 14.8761 11.2715H13.0537C12.1385 11.2715 11.5926 11.8174 11.5926 12.7566V14.5148C11.5926 15.4541 12.1385 16 13.0537 16ZM1.64576 14.7637C1.3728 14.7637 1.24436 14.6192 1.24436 14.3302V12.9333C1.24436 12.6523 1.3728 12.5078 1.64576 12.5078H3.08279C3.34772 12.5078 3.50025 12.6523 3.50025 12.9333V14.3302C3.50025 14.6192 3.34772 14.7637 3.08279 14.7637H1.64576ZM7.43402 14.7637C7.16909 14.7637 7.03261 14.6192 7.03261 14.3302V12.9333C7.03261 12.6523 7.16909 12.5078 7.43402 12.5078H8.87908C9.144 12.5078 9.28851 12.6523 9.28851 12.9333V14.3302C9.28851 14.6192 9.144 14.7637 8.87908 14.7637H7.43402ZM13.2383 14.7637C12.9734 14.7637 12.8289 14.6192 12.8289 14.3302V12.9333C12.8289 12.6523 12.9734 12.5078 13.2383 12.5078H14.6754C14.9483 12.5078 15.0848 12.6523 15.0848 12.9333V14.3302C15.0848 14.6192 14.9483 14.7637 14.6754 14.7637H13.2383Z" fill="white" fill-opacity="0.8"/>
</svg>
