<svg width="40" height="40" viewBox="0 0 40 40" fill="none" xmlns="http://www.w3.org/2000/svg">
<rect x="0.5" y="0.5" width="39" height="39" rx="5.5" stroke="#292A2F"/>
<path fill-rule="evenodd" clip-rule="evenodd" d="M14.375 17.75C14.0766 17.75 13.7905 17.8685 13.5795 18.0795C13.3685 18.2905 13.25 18.5766 13.25 18.875V27.875C13.25 28.1734 13.3685 28.4595 13.5795 28.6705C13.7905 28.8815 14.0766 29 14.375 29H25.625C25.9234 29 26.2095 28.8815 26.4205 28.6705C26.6315 28.4595 26.75 28.1734 26.75 27.875V18.875C26.75 18.5766 26.6315 18.2905 26.4205 18.0795C26.2095 17.8685 25.9234 17.75 25.625 17.75H23.75C23.3358 17.75 23 17.4142 23 17C23 16.5858 23.3358 16.25 23.75 16.25H25.625C26.3212 16.25 26.9889 16.5266 27.4812 17.0188C27.9734 17.5111 28.25 18.1788 28.25 18.875V27.875C28.25 28.5712 27.9734 29.2389 27.4812 29.7312C26.9889 30.2234 26.3212 30.5 25.625 30.5H14.375C13.6788 30.5 13.0111 30.2234 12.5188 29.7312C12.0266 29.2389 11.75 28.5712 11.75 27.875V18.875C11.75 18.1788 12.0266 17.5111 12.5188 17.0188C13.0111 16.5266 13.6788 16.25 14.375 16.25H16.25C16.6642 16.25 17 16.5858 17 17C17 17.4142 16.6642 17.75 16.25 17.75H14.375Z" fill="#EAEBEF"/>
<path fill-rule="evenodd" clip-rule="evenodd" d="M19.4697 9.71967C19.7626 9.42678 20.2374 9.42678 20.5303 9.71967L24.2803 13.4697C24.5732 13.7626 24.5732 14.2374 24.2803 14.5303C23.9874 14.8232 23.5126 14.8232 23.2197 14.5303L20 11.3107L16.7803 14.5303C16.4874 14.8232 16.0126 14.8232 15.7197 14.5303C15.4268 14.2374 15.4268 13.7626 15.7197 13.4697L19.4697 9.71967Z" fill="#EAEBEF"/>
<path fill-rule="evenodd" clip-rule="evenodd" d="M20 9.5C20.4142 9.5 20.75 9.83579 20.75 10.25V23.0469C20.75 23.4611 20.4142 23.7969 20 23.7969C19.5858 23.7969 19.25 23.4611 19.25 23.0469V10.25C19.25 9.83579 19.5858 9.5 20 9.5Z" fill="#EAEBEF"/>
</svg>
